<?xml version="1.0" encoding="utf-8"?>
<!-- Generator: Adobe Illustrator 26.5.0, SVG Export Plug-In . SVG Version: 6.00 Build 0)  -->
<svg version="1.1" id="Layer_1" xmlns="http://www.w3.org/2000/svg" xmlns:xlink="http://www.w3.org/1999/xlink" x="0px" y="0px"
	 viewBox="0 0 100 100" style="enable-background:new 0 0 100 100;" xml:space="preserve">
<style type="text/css">
	.st0{fill:url(#Path_12_00000119076933161566075330000011440636274541737617_);}
	.st1{opacity:0.2;fill:url(#Path_13_00000062191522942502155580000012387464281989583009_);enable-background:new    ;}
	.st2{fill:#003CB8;}
</style>
<g id="Group_44" transform="translate(-309.176 -490.268)">
	<g id="Group_43" transform="translate(309.176 490.268)">
		
			<linearGradient id="Path_12_00000038413429363884724690000007822031014520679580_" gradientUnits="userSpaceOnUse" x1="-623.8804" y1="427.5678" x2="-622.8804" y2="427.5678" gradientTransform="matrix(78.9909 0 0 -49.1522 49290.2344 21048.2031)">
			<stop  offset="0" style="stop-color:#FF40AC"/>
			<stop  offset="9.099999e-02" style="stop-color:#F144AF"/>
			<stop  offset="0.262" style="stop-color:#CD4FB7"/>
			<stop  offset="0.496" style="stop-color:#9261C5"/>
			<stop  offset="0.778" style="stop-color:#437AD8"/>
			<stop  offset="1" style="stop-color:#0090E9"/>
		</linearGradient>
		<path id="Path_12" style="fill:url(#Path_12_00000038413429363884724690000007822031014520679580_);" d="M23.6,29.3
			c0,0,4.3-15.2,20.2-10.4c0,0,4.5-11.7,16.5-11.2c0,0,13.5-0.6,16.8,15.8c0,0,10.6,1,11.2,13.6c0.4,2.9-0.3,5.8-2,8.2
			c0,0-5.4,9.9-15.5,5c0,0-7.3,12.8-20.9,2.5c0,0-11.6,7.7-23.4-1.6c0,0-11.8,6.1-16.9-7.8C9.6,43.5,6.4,28,23.6,29.3z"/>
		
			<linearGradient id="Path_13_00000027562187519790593240000005249268736512911281_" gradientUnits="userSpaceOnUse" x1="-622.1234" y1="426.0676" x2="-621.1234" y2="426.0676" gradientTransform="matrix(64.939 0 0 -40.4074 40415.9609 17249.6152)">
			<stop  offset="0" style="stop-color:#FF7BAC"/>
			<stop  offset="9.099999e-02" style="stop-color:#F17DAF"/>
			<stop  offset="0.262" style="stop-color:#CD82B7"/>
			<stop  offset="0.496" style="stop-color:#928CC5"/>
			<stop  offset="0.778" style="stop-color:#4399D8"/>
			<stop  offset="1" style="stop-color:#00A4E9"/>
		</linearGradient>
		
			<path id="Path_13" style="opacity:0.2;fill:url(#Path_13_00000027562187519790593240000005249268736512911281_);enable-background:new    ;" d="
			M27.6,30.9c0,0,3.5-12.5,16.6-8.5c0,0,3.7-9.6,13.5-9.2c0,0,11.1-0.5,13.8,13c0,0,8.7,0.8,9.2,11.2c0.3,2.4-0.3,4.8-1.6,6.7
			c0,0-4.4,8.1-12.7,4.1c0,0-6,10.5-17.2,2.1c-6,3.7-13.8,3.1-19.2-1.3c0,0-9.7,5.1-13.9-6.4C16.1,42.5,13.4,29.8,27.6,30.9z"/>
	</g>
	<path id="Path_14" class="st2" d="M334.4,551.4l0.9-1.1l-0.1,0.7l0.5-0.4l-0.1,0.7l0.5-0.3l-0.1,0.6l0.7-0.2l-0.1,0.5l0.7-0.1
		l-0.2,0.6l0.7-0.1l-1.1,0.8c1.4,2.1,0.9,4.9-1.2,6.3c-2.1,1.4-4.9,0.9-6.3-1.2c-1.4-2.1-0.9-4.9,1.2-6.3
		C331.5,551.1,333.1,550.9,334.4,551.4L334.4,551.4z"/>
	<path id="Path_15" class="st2" d="M357,556l-0.5-1.3l0.5,0.4l-0.1-0.6l0.5,0.4l0-0.6l0.4,0.4l0.2-0.7l0.3,0.4l0.3-0.6l0.4,0.5
		l0.3-0.6l0.2,1.4c2.5-0.2,4.7,1.6,4.9,4.1c0.2,2.5-1.6,4.7-4.1,4.9c-2.5,0.2-4.7-1.6-4.9-4.1C355.3,558.4,355.9,557,357,556
		L357,556z"/>
	<path id="Path_16" class="st2" d="M387.6,551.7l1.1-0.9l-0.2,0.6l0.5-0.3l-0.2,0.6l0.6-0.2l-0.2,0.5l0.7,0l-0.2,0.4l0.7,0l-0.3,0.5
		l0.7,0.1l-1.2,0.6c1,2.3,0,5-2.3,6c-2.3,1-5,0-6-2.3c-1-2.3,0-5,2.3-6C384.8,550.8,386.3,550.9,387.6,551.7z"/>
	<path id="Path_17" class="st2" d="M341.9,575.9l-0.5-1.3l0.5,0.4l-0.1-0.6l0.5,0.4l0-0.6l0.4,0.4l0.2-0.7l0.3,0.4l0.3-0.6l0.4,0.5
		l0.3-0.6l0.2,1.4c2.5-0.2,4.7,1.6,4.9,4.1c0.2,2.5-1.6,4.7-4.1,4.9c-2.5,0.2-4.7-1.6-4.9-4.1C340.2,578.3,340.8,576.8,341.9,575.9
		L341.9,575.9z"/>
	<path id="Path_18" class="st2" d="M379.9,574.6l0.8-1.2l0,0.7l0.4-0.4l0,0.7l0.5-0.3l-0.1,0.6l0.7-0.2l-0.1,0.5l0.7-0.1l-0.2,0.6
		l0.7-0.1l-1,0.9c1.6,1.9,1.4,4.8-0.5,6.4s-4.8,1.4-6.4-0.5c-1.6-1.9-1.4-4.8,0.5-6.4C376.9,574.6,378.4,574.2,379.9,574.6
		L379.9,574.6z"/>
</g>
</svg>
