<?xml version="1.0" encoding="utf-8"?>
<!-- Generator: Adobe Illustrator 26.5.0, SVG Export Plug-In . SVG Version: 6.00 Build 0)  -->
<svg version="1.1" id="Layer_1" xmlns="http://www.w3.org/2000/svg" xmlns:xlink="http://www.w3.org/1999/xlink" x="0px" y="0px"
	 viewBox="0 0 100 100" style="enable-background:new 0 0 100 100;" xml:space="preserve">
<style type="text/css">
	.st0{fill:url(#Path_12_00000126314636439830903620000009612896125319675784_);}
	.st1{opacity:0.2;fill:url(#Path_13_00000103261593691960745660000008367480080387200927_);enable-background:new    ;}
	.st2{fill:#003CB8;}
</style>
<g id="Group_44" transform="translate(-309.176 -490.268)">
	<g id="Group_43" transform="translate(309.176 490.268)">
		
			<linearGradient id="Path_12_00000075862775585151558580000007918498665359295141_" gradientUnits="userSpaceOnUse" x1="-623.8607" y1="427.5678" x2="-622.8607" y2="427.5678" gradientTransform="matrix(78.9909 0 0 -49.1522 49290.2344 21048.2031)">
			<stop  offset="0" style="stop-color:#FF40AC"/>
			<stop  offset="9.099999e-02" style="stop-color:#F144AF"/>
			<stop  offset="0.262" style="stop-color:#CD4FB7"/>
			<stop  offset="0.496" style="stop-color:#9261C5"/>
			<stop  offset="0.778" style="stop-color:#437AD8"/>
			<stop  offset="1" style="stop-color:#0090E9"/>
		</linearGradient>
		<path id="Path_12" style="fill:url(#Path_12_00000075862775585151558580000007918498665359295141_);" d="M25.2,29.3
			c0,0,4.3-15.2,20.2-10.4c0,0,4.5-11.7,16.5-11.2c0,0,13.5-0.6,16.8,15.8c0,0,10.6,1,11.2,13.6c0.4,2.9-0.3,5.8-2,8.2
			c0,0-5.4,9.9-15.5,5c0,0-7.3,12.8-20.9,2.5c0,0-11.6,7.7-23.4-1.6c0,0-11.8,6.1-16.9-7.8C11.2,43.5,7.9,28,25.2,29.3z"/>
		
			<linearGradient id="Path_13_00000124140509346957849760000002468945842066559167_" gradientUnits="userSpaceOnUse" x1="-622.0994" y1="426.0676" x2="-621.0994" y2="426.0676" gradientTransform="matrix(64.939 0 0 -40.4074 40415.9609 17249.6152)">
			<stop  offset="0" style="stop-color:#FF7BAC"/>
			<stop  offset="9.099999e-02" style="stop-color:#F17DAF"/>
			<stop  offset="0.262" style="stop-color:#CD82B7"/>
			<stop  offset="0.496" style="stop-color:#928CC5"/>
			<stop  offset="0.778" style="stop-color:#4399D8"/>
			<stop  offset="1" style="stop-color:#00A4E9"/>
		</linearGradient>
		
			<path id="Path_13" style="opacity:0.2;fill:url(#Path_13_00000124140509346957849760000002468945842066559167_);enable-background:new    ;" d="
			M29.1,30.9c0,0,3.5-12.5,16.6-8.5c0,0,3.7-9.6,13.5-9.2c0,0,11.1-0.5,13.8,13c0,0,8.7,0.8,9.2,11.2c0.3,2.4-0.3,4.8-1.6,6.7
			c0,0-4.4,8.1-12.7,4.1c0,0-6,10.5-17.2,2.1c-6,3.7-13.8,3.1-19.2-1.3c0,0-9.7,5.1-13.9-6.4C17.6,42.5,15,29.8,29.1,30.9z"/>
	</g>
	<path id="Path_14" class="st2" d="M336,551.4l0.9-1.1l-0.1,0.7l0.5-0.4l-0.1,0.7l0.5-0.3l-0.1,0.6l0.7-0.2l-0.1,0.5l0.7-0.1
		l-0.2,0.6l0.7-0.1l-1.1,0.8c1.4,2.1,0.9,4.9-1.2,6.3c-2.1,1.4-4.9,0.9-6.3-1.2c-1.4-2.1-0.9-4.9,1.2-6.3
		C333.1,551.1,334.6,550.9,336,551.4L336,551.4z"/>
	<path id="Path_15" class="st2" d="M358.6,556l-0.5-1.3l0.5,0.4l-0.1-0.6l0.5,0.4l0-0.6l0.4,0.4l0.2-0.7l0.3,0.4l0.3-0.6l0.4,0.5
		l0.3-0.6l0.2,1.4c2.5-0.2,4.7,1.6,4.9,4.1c0.2,2.5-1.6,4.7-4.1,4.9c-2.5,0.2-4.7-1.6-4.9-4.1C356.9,558.4,357.5,557,358.6,556
		L358.6,556z"/>
	<path id="Path_16" class="st2" d="M389.1,551.7l1.1-0.9l-0.2,0.6l0.5-0.3l-0.2,0.6l0.6-0.2l-0.2,0.5l0.7,0l-0.2,0.4l0.7,0l-0.3,0.5
		l0.7,0.1l-1.2,0.6c1,2.3,0,5-2.3,6c-2.3,1-5,0-6-2.3c-1-2.3,0-5,2.3-6C386.3,550.8,387.9,550.9,389.1,551.7z"/>
	<path id="Path_17" class="st2" d="M343.4,575.9l-0.5-1.3l0.5,0.4l-0.1-0.6l0.5,0.4l0-0.6l0.4,0.4l0.2-0.7l0.3,0.4l0.3-0.6l0.4,0.5
		l0.3-0.6l0.2,1.4c2.5-0.2,4.7,1.6,4.9,4.1c0.2,2.5-1.6,4.7-4.1,4.9c-2.5,0.2-4.7-1.6-4.9-4.1C341.7,578.3,342.3,576.8,343.4,575.9
		L343.4,575.9z"/>
	<path id="Path_18" class="st2" d="M381.4,574.6l0.8-1.2l0,0.7l0.4-0.4l0,0.7l0.5-0.3l-0.1,0.6l0.7-0.2l-0.1,0.5l0.7-0.1l-0.2,0.6
		l0.7-0.1l-1,0.9c1.6,1.9,1.4,4.8-0.5,6.4s-4.8,1.4-6.4-0.5c-1.6-1.9-1.4-4.8,0.5-6.4C378.5,574.6,380,574.2,381.4,574.6
		L381.4,574.6z"/>
</g>
</svg>
