<?xml version="1.0" encoding="utf-8"?>
<!-- Generator: Adobe Illustrator 26.5.0, SVG Export Plug-In . SVG Version: 6.00 Build 0)  -->
<svg version="1.1" id="Layer_1" xmlns="http://www.w3.org/2000/svg" xmlns:xlink="http://www.w3.org/1999/xlink" x="0px" y="0px"
	 viewBox="0 0 100 100" style="enable-background:new 0 0 100 100;" xml:space="preserve">
<style type="text/css">
	.st0{fill:url(#Path_5_00000044872544549981149250000006222143709002918283_);}
	.st1{opacity:0.2;fill:url(#Path_6_00000179625317262969492410000006943883921492422799_);enable-background:new    ;}
</style>
<g id="Group_40" transform="translate(-309.176 -490.267)">
	
		<linearGradient id="Path_5_00000098210833316432211430000000871356753923463325_" gradientUnits="userSpaceOnUse" x1="-314.9167" y1="917.7349" x2="-313.9167" y2="917.7349" gradientTransform="matrix(80.9898 0 0 -50.3929 25822.6289 46784.1953)">
		<stop  offset="0" style="stop-color:#FF40AC"/>
		<stop  offset="9.099999e-02" style="stop-color:#F144AF"/>
		<stop  offset="0.262" style="stop-color:#CD4FB7"/>
		<stop  offset="0.496" style="stop-color:#9261C5"/>
		<stop  offset="0.778" style="stop-color:#437AD8"/>
		<stop  offset="1" style="stop-color:#0090E9"/>
	</linearGradient>
	<path id="Path_5" style="fill:url(#Path_5_00000098210833316432211430000000871356753923463325_);" d="M332.2,533.8
		c0,0,4.4-15.6,20.7-10.7c0,0,4.6-12,16.9-11.4c0,0,13.8-0.6,17.2,16.2c0,0,10.9,1,11.4,14c0.4,3-0.4,5.9-2,8.4
		c0,0-5.5,10.1-15.9,5.1c0,0-7.5,13.1-21.4,2.6c0,0-11.9,7.9-24-1.7c0,0-12.1,6.3-17.3-8C317.8,548.3,314.5,532.4,332.2,533.8z"/>
	
		<linearGradient id="Path_6_00000173130923753493459890000013156135496697712052_" gradientUnits="userSpaceOnUse" x1="-313.2064" y1="916.2141" x2="-312.2064" y2="916.2141" gradientTransform="matrix(66.587 0 0 -41.4327 21179.7207 38499.1133)">
		<stop  offset="0" style="stop-color:#FF7BAC"/>
		<stop  offset="9.099999e-02" style="stop-color:#F17DAF"/>
		<stop  offset="0.262" style="stop-color:#CD82B7"/>
		<stop  offset="0.496" style="stop-color:#928CC5"/>
		<stop  offset="0.778" style="stop-color:#4399D8"/>
		<stop  offset="1" style="stop-color:#00A4E9"/>
	</linearGradient>
	
		<path id="Path_6" style="opacity:0.2;fill:url(#Path_6_00000173130923753493459890000013156135496697712052_);enable-background:new    ;" d="
		M336.3,535.3c0,0,3.6-12.8,17-8.8c0,0,3.8-9.8,13.9-9.4c0,0,11.4-0.5,14.2,13.3c0,0,8.9,0.8,9.4,11.5c0.3,2.4-0.3,4.9-1.7,6.9
		c0,0-4.5,8.3-13,4.2c0,0-6.1,10.8-17.6,2.1c-6.2,3.8-14.1,3.2-19.7-1.4c0,0-9.9,5.2-14.2-6.6C324.5,547.3,321.7,534.3,336.3,535.3z
		"/>
</g>
</svg>
