<?xml version="1.0" encoding="utf-8"?>
<!-- Generator: Adobe Illustrator 26.5.0, SVG Export Plug-In . SVG Version: 6.00 Build 0)  -->
<svg version="1.1" id="Layer_1" xmlns="http://www.w3.org/2000/svg" xmlns:xlink="http://www.w3.org/1999/xlink" x="0px" y="0px"
	 viewBox="0 0 100 100" style="enable-background:new 0 0 100 100;" xml:space="preserve">
<style type="text/css">
	.st0{fill:url(#Path_7_00000137813646150526038390000016753460265873062805_);}
	.st1{opacity:0.2;fill:url(#Path_8_00000130623465549753634050000010636060974528119724_);enable-background:new    ;}
	.st2{fill:#F2E4A9;}
	.st3{fill:#966928;}
	.st4{fill:#F496A8;}
</style>
<g id="Group_42" transform="translate(-309.176 -490.268)">
	<g id="Group_41" transform="translate(309.176 490.268)">
		
			<linearGradient id="Path_7_00000094580598554428956210000015281545667372602533_" gradientUnits="userSpaceOnUse" x1="-622.7879" y1="426.7109" x2="-621.7879" y2="426.7109" gradientTransform="matrix(70.1266 0 0 -43.635 43688.0039 18648.2285)">
			<stop  offset="0" style="stop-color:#FF40AC"/>
			<stop  offset="9.099999e-02" style="stop-color:#F144AF"/>
			<stop  offset="0.262" style="stop-color:#CD4FB7"/>
			<stop  offset="0.496" style="stop-color:#9261C5"/>
			<stop  offset="0.778" style="stop-color:#437AD8"/>
			<stop  offset="1" style="stop-color:#0090E9"/>
		</linearGradient>
		<path id="Path_7" style="fill:url(#Path_7_00000094580598554428956210000015281545667372602533_);" d="M26.7,26
			c0,0,3.8-13.5,17.9-9.2c0,0,4-10.4,14.6-9.9c0,0,12-0.5,14.9,14c0,0,9.4,0.9,9.9,12.1c0.3,2.6-0.3,5.1-1.8,7.3
			c0,0-4.8,8.8-13.7,4.5c0,0-6.5,11.4-18.6,2.3c-6.5,4-14.8,3.4-20.8-1.4c0,0-10.5,5.5-15-6.9C14.2,38.6,11.3,24.9,26.7,26z"/>
		
			<linearGradient id="Path_8_00000156572059826242754060000000504955992609786241_" gradientUnits="userSpaceOnUse" x1="-620.7951" y1="425.025" x2="-619.7951" y2="425.025" gradientTransform="matrix(57.6544 0 0 -35.8707 35811.3789 15275.541)">
			<stop  offset="0" style="stop-color:#FF7BAC"/>
			<stop  offset="9.099999e-02" style="stop-color:#F17DAF"/>
			<stop  offset="0.262" style="stop-color:#CD82B7"/>
			<stop  offset="0.496" style="stop-color:#928CC5"/>
			<stop  offset="0.778" style="stop-color:#4399D8"/>
			<stop  offset="1" style="stop-color:#00A4E9"/>
		</linearGradient>
		
			<path id="Path_8" style="opacity:0.2;fill:url(#Path_8_00000156572059826242754060000000504955992609786241_);enable-background:new    ;" d="
			M30.2,27.4c0,0,3.1-11.1,14.8-7.6c0,0,3.2-8.5,12-8.1c0,0,9.9-0.4,12.3,11.5c0,0,7.7,0.7,8.1,10c0.3,2.1-0.3,4.2-1.4,6
			c0,0-3.9,7.2-11.3,3.7c0,0-5.3,9.3-15.3,1.9c-5.4,3.3-12.2,2.8-17.1-1.2c0,0-8.6,4.5-12.3-5.7C20,37.8,17.6,26.5,30.2,27.4z"/>
	</g>
	<path id="Path_9" class="st2" d="M371.4,554.9L371.4,554.9c0.7-5.2-2.9-10-8.1-10.8c-5.2-0.7-10,2.9-10.8,8.1
		c-0.6,3.9,1.4,7.7,4.8,9.7l0,0l0.3,0.6c1.1,1.4,3.1,1.6,4.5,0.5c0.4-0.3,0.8-0.8,1-1.3c1-1,2.4-1.4,3.8-1.1
		c0.1-0.9,0.8-1.5,1.7-1.4c0.2,0,0.5,0.1,0.7,0.2c0.1-0.9,0.9-1.4,1.8-1.3c0.2,0,0.4,0.1,0.5,0.2c0.8-0.4,1.1-1.3,0.7-2.1
		c-0.1-0.3-0.4-0.5-0.6-0.7L371.4,554.9z"/>
	<path id="Path_10" class="st3" d="M379.7,582.6L379.7,582.6c4.9-1.9,7.3-7.4,5.4-12.3c-1.9-4.9-7.4-7.3-12.3-5.4
		c-3.7,1.4-6.1,5-6.1,8.9l0,0l-0.4,0.6c1.7,1.6,3.1,3.6,4.1,5.7c0.8-0.3,1.7,0.1,2,0.9c0.1,0.2,0.1,0.4,0.1,0.5
		c0.8-0.4,1.7,0,2.1,0.8c0.1,0.2,0.1,0.5,0.1,0.7c0.8-0.3,1.7,0.1,2,0.9c0.1,0.2,0.1,0.4,0.1,0.5c0.7,0.5,1.7,0.3,2.2-0.4
		c0.2-0.3,0.3-0.6,0.3-0.9L379.7,582.6z"/>
	<path id="Path_11" class="st4" d="M348.3,564L348.3,564c-5.2,0.6-9,5.3-8.4,10.5c0.6,5.2,5.3,9,10.5,8.4c3.9-0.4,7.2-3.3,8.1-7.1
		l0,0l0.5-0.5c-1.2-2-2.1-4.2-2.5-6.5c-0.9,0.1-1.6-0.5-1.7-1.4c0-0.2,0-0.4,0-0.6c-0.9,0.1-1.7-0.4-1.8-1.3c0-0.2,0-0.5,0-0.7
		c-0.9,0.1-1.6-0.5-1.7-1.4c0-0.2,0-0.4,0-0.6c-0.6-0.7-1.6-0.7-2.2-0.1c-0.2,0.2-0.4,0.5-0.5,0.8L348.3,564z"/>
</g>
</svg>
