<?xml version="1.0" encoding="utf-8"?>
<!-- Generator: Adobe Illustrator 26.5.0, SVG Export Plug-In . SVG Version: 6.00 Build 0)  -->
<svg version="1.1" id="Layer_1" xmlns="http://www.w3.org/2000/svg" xmlns:xlink="http://www.w3.org/1999/xlink" x="0px" y="0px"
	 viewBox="0 0 100 100" style="enable-background:new 0 0 100 100;" xml:space="preserve">
<style type="text/css">
	.st0{fill:#FFD016;}
	.st1{fill:#FFFFFF;}
	.st2{fill:none;}
</style>
<g id="Group_39" transform="translate(-880 -51)">
	<g id="Group_27" transform="translate(893.139 62.486)">
		<circle id="Ellipse_6" class="st0" cx="37.6" cy="37.9" r="23.6"/>
		<path id="Ellipse_6_-_Outline" class="st1" d="M37.6,14.1c13.1,0,23.8,10.7,23.8,23.8c0,9.5-5.7,18.2-14.5,21.9
			c-12.1,5.1-26-0.6-31.1-12.6s0.6-26,12.6-31.1C31.3,14.8,34.5,14.1,37.6,14.1z M37.6,61.4c13,0,23.5-10.5,23.5-23.5
			S50.6,14.4,37.6,14.4S14.1,24.9,14.1,37.9c0,0,0,0,0,0C14.1,50.9,24.7,61.4,37.6,61.4z"/>
	</g>
	<g id="Group_38" transform="translate(897.878 67.121)">
		<circle id="Ellipse_7" class="st0" cx="32.9" cy="33.2" r="18.9"/>
		<path id="Ellipse_7_-_Outline" class="st1" d="M32.9,12.3c11.5,0,20.9,9.3,20.9,20.9c0,5.6-2.2,10.9-6.1,14.8
			c-8.2,8.2-21.4,8.2-29.6,0s-8.2-21.4,0-29.6c1.9-1.9,4.2-3.4,6.6-4.5C27.4,12.8,30.1,12.3,32.9,12.3z M32.9,50.1
			c9.3,0,16.9-7.6,16.9-16.9s-7.6-16.9-16.9-16.9S16,23.8,16,33.2C16,42.5,23.6,50.1,32.9,50.1z"/>
		<g id="Group_37" transform="translate(0.036 0.129)">
			<g id="Group_28" transform="translate(18.917)">
				<line id="Line_50" class="st2" x1="14" y1="14.3" x2="14" y2="52.1"/>
				<path id="Line_51" class="st1" d="M16,52.1h-4V14.3h4V52.1z"/>
			</g>
			<g id="Group_29" transform="translate(5.541 5.541)">
				<line id="Line_52" class="st2" x1="40.8" y1="14.3" x2="14" y2="41"/>
				<path id="Line_53" class="st1" d="M15.4,42.4l-2.8-2.8l26.8-26.8l2.8,2.8L15.4,42.4z"/>
			</g>
			<g id="Group_30" transform="translate(0 18.917)">
				<line id="Line_54" class="st2" x1="51.8" y1="14.3" x2="14" y2="14.3"/>
				<path id="Line_55" class="st1" d="M51.8,16.3H14v-4h37.8V16.3z"/>
			</g>
			<g id="Group_31" transform="translate(5.541 5.541)">
				<line id="Line_56" class="st2" x1="40.8" y1="41" x2="14" y2="14.3"/>
				<path id="Line_57" class="st1" d="M39.3,42.4L12.6,15.7l2.8-2.8l26.8,26.8L39.3,42.4z"/>
			</g>
			<g id="Group_32" transform="translate(18.917)">
				<line id="Line_58" class="st2" x1="14" y1="52.1" x2="14" y2="14.3"/>
				<path id="Line_59" class="st1" d="M16,52.1h-4V14.3h4V52.1z"/>
			</g>
			<g id="Group_33" transform="translate(5.541 5.541)">
				<line id="Line_60" class="st2" x1="14" y1="41" x2="40.8" y2="14.3"/>
				<path id="Line_61" class="st1" d="M15.4,42.4l-2.8-2.8l26.8-26.8l2.8,2.8L15.4,42.4z"/>
			</g>
			<g id="Group_34" transform="translate(0 18.917)">
				<line id="Line_62" class="st2" x1="14" y1="14.3" x2="51.8" y2="14.3"/>
				<path id="Line_63" class="st1" d="M51.8,16.3H14v-4h37.8V16.3z"/>
			</g>
			<g id="Group_35" transform="translate(5.541 5.541)">
				<line id="Line_64" class="st2" x1="14" y1="14.3" x2="40.8" y2="41"/>
				<path id="Line_65" class="st1" d="M39.3,42.4L12.6,15.7l2.8-2.8l26.8,26.8L39.3,42.4z"/>
			</g>
			<g id="Group_36" transform="translate(18.917)">
				<line id="Line_66" class="st2" x1="14" y1="14.3" x2="14" y2="52.1"/>
				<path id="Line_67" class="st1" d="M16,52.1h-4V14.3h4V52.1z"/>
			</g>
		</g>
	</g>
	<path id="Line_68" class="st0" d="M932.1,74.5h-3v-9.3h3V74.5z"/>
	<path id="Line_69" class="st0" d="M932.1,137.7h-3v-9.3h3V137.7z"/>
	<path id="Line_70" class="st0" d="M911,84l-6.5-6.5l2.1-2.1l6.5,6.5L911,84z"/>
	<path id="Line_71" class="st0" d="M955.7,128.7l-6.5-6.5l2.1-2.1l6.5,6.5L955.7,128.7z"/>
	<path id="Line_72" class="st0" d="M903.3,102.4H894v-3h9.3V102.4z"/>
	<path id="Line_73" class="st0" d="M967,102.4h-9.3v-3h9.3V102.4z"/>
	<path id="Line_74" class="st0" d="M951,84.8l-2.1-2.1l6.5-6.5l2.1,2.1L951,84.8z"/>
	<path id="Line_75" class="st0" d="M906.8,129l-2.1-2.1l6.5-6.5l2.1,2.1L906.8,129z"/>
</g>
</svg>
