<svg xmlns="http://www.w3.org/2000/svg" width="72.711" height="80.044" viewBox="0 0 72.711 80.044">
  <g id="Group_45" data-name="Group 45" transform="translate(-30.231 -500.002)">
    <path id="Path_19" data-name="Path 19" d="M78.477,663.539l-9.6-12.718a6.326,6.326,0,0,1-.736-6.374l3.358-7.583a6.325,6.325,0,0,1,3.655-3.4l11.176-3.994a4.387,4.387,0,0,1,4.954,1.458l11.926,15.525a4.387,4.387,0,0,1,.758,3.807l-2.593,9.676a6.326,6.326,0,0,1-5.349,4.643l-11.735,1.422A6.325,6.325,0,0,1,78.477,663.539Z" transform="translate(-24.775 -86.506)" fill="#cdfeff"/>
    <path id="Path_19_-_Outline" data-name="Path 19 - Outline" d="M83.524,666.553a6.859,6.859,0,0,1-5.446-2.712l-9.6-12.717a6.829,6.829,0,0,1-.794-6.877l3.358-7.583A6.854,6.854,0,0,1,74.982,633L86.158,629a4.885,4.885,0,0,1,5.519,1.625L103.6,646.154a4.917,4.917,0,0,1,.845,4.241l-2.593,9.676a6.826,6.826,0,0,1-5.772,5.01L84.347,666.5A6.865,6.865,0,0,1,83.524,666.553ZM87.8,629.719a3.872,3.872,0,0,0-1.307.227L75.319,633.94a5.85,5.85,0,0,0-3.367,3.127l-3.358,7.583a5.829,5.829,0,0,0,.678,5.87l9.6,12.718a5.824,5.824,0,0,0,5.35,2.273l11.735-1.422a5.8,5.8,0,0,0,4.926-4.276l2.593-9.676a3.911,3.911,0,0,0-.672-3.373L90.884,631.238A3.912,3.912,0,0,0,87.8,629.719Z" transform="translate(-24.775 -86.506)"/>
    <path id="Path_20" data-name="Path 20" d="M138.148,531.2l9.038-13.126A6.326,6.326,0,0,1,153,515.365l8.255.795a6.326,6.326,0,0,1,4.375,2.4l7.315,9.345a4.386,4.386,0,0,1,.179,5.162l-10.97,16.214a4.387,4.387,0,0,1-3.374,1.921l-10,.592a6.326,6.326,0,0,1-6.093-3.611l-5.052-10.688A6.325,6.325,0,0,1,138.148,531.2Z" transform="translate(-71.441 -9.969)" fill="#cdfeff"/>
    <path id="Path_20_-_Outline" data-name="Path 20 - Outline" d="M152.4,514.836c.218,0,.438.011.655.031l8.255.795a6.855,6.855,0,0,1,4.721,2.587l7.315,9.345a4.872,4.872,0,0,1,.2,5.75l-10.97,16.214a4.917,4.917,0,0,1-3.758,2.14l-10,.592c-.134.008-.271.012-.4.012a6.826,6.826,0,0,1-6.17-3.909L137.187,537.7a6.847,6.847,0,0,1,.55-6.788l9.038-13.126A6.824,6.824,0,0,1,152.4,514.836ZM148.408,551.3c.115,0,.231,0,.346-.01l10-.592a3.911,3.911,0,0,0,2.989-1.7l10.97-16.214a3.875,3.875,0,0,0-.159-4.573l-7.315-9.345a5.851,5.851,0,0,0-4.029-2.208l-8.255-.795c-.185-.018-.373-.027-.559-.027a5.824,5.824,0,0,0-4.8,2.522l-9.038,13.126a5.843,5.843,0,0,0-.469,5.793l5.052,10.688A5.85,5.85,0,0,0,148.408,551.3Z" transform="translate(-71.441 -9.969)"/>
    <path id="Path_21" data-name="Path 21" d="M30.732,526.619l.2-15.935a6.326,6.326,0,0,1,3.324-5.488l7.3-3.936a6.326,6.326,0,0,1,4.969-.444l11.28,3.691a4.386,4.386,0,0,1,3.022,4.188l-.087,19.577a4.387,4.387,0,0,1-1.733,3.473L51.029,537.8a6.326,6.326,0,0,1-7.072.391l-10.146-6.066A6.325,6.325,0,0,1,30.732,526.619Z" transform="translate(0 0)" fill="#cdfeff"/>
    <path id="Path_21_-_Outline" data-name="Path 21 - Outline" d="M47.2,539.591a6.827,6.827,0,0,1-3.5-.967l-10.146-6.066a6.847,6.847,0,0,1-3.323-5.945l.2-15.935a6.83,6.83,0,0,1,3.586-5.922l7.3-3.935a6.825,6.825,0,0,1,5.362-.479l11.279,3.691a4.871,4.871,0,0,1,3.366,4.665l-.087,19.577a4.916,4.916,0,0,1-1.931,3.869L51.331,538.2A6.866,6.866,0,0,1,47.2,539.591ZM44.56,501a5.845,5.845,0,0,0-2.765.7l-7.3,3.936a5.829,5.829,0,0,0-3.061,5.054l-.2,15.935a5.844,5.844,0,0,0,2.836,5.074l10.146,6.066a5.826,5.826,0,0,0,6.513-.361l7.978-6.059a3.91,3.91,0,0,0,1.536-3.077l.087-19.576a3.874,3.874,0,0,0-2.677-3.711l-11.28-3.691A5.814,5.814,0,0,0,44.56,501Z" transform="translate(0 0)"/>
    <path id="Path_22" data-name="Path 22" d="M130,555" transform="translate(-66.715 -36.626)" fill="#003cb8"/>
  </g>
</svg>
