<svg xmlns="http://www.w3.org/2000/svg" width="81" height="46.902" viewBox="0 0 81 46.902">
  <g id="Group_49" data-name="Group 49" transform="translate(-1124.5 -239.9)">
    <g id="Group_46" data-name="Group 46" transform="translate(1124.5 242.4)">
      <path id="Path_23" data-name="Path 23" d="M1205.214,261.043a15.628,15.628,0,0,1-9.448-2.993,33.127,33.127,0,0,1-5.925-5.977c-3.207-3.848-5.977-7.172-11.532-7.172s-8.325,3.324-11.532,7.172a33.127,33.127,0,0,1-5.925,5.977,16.406,16.406,0,0,1-18.9,0,33.123,33.123,0,0,1-5.924-5.977c-3.207-3.848-5.976-7.172-11.53-7.172v-5a15.626,15.626,0,0,1,9.447,2.994,33.123,33.123,0,0,1,5.924,5.977c3.207,3.848,5.976,7.172,11.531,7.172s8.325-3.324,11.532-7.172a33.127,33.127,0,0,1,5.925-5.977,16.408,16.408,0,0,1,18.9,0,33.127,33.127,0,0,1,5.925,5.977c3.207,3.848,5.977,7.172,11.532,7.172Z" transform="translate(-1124.5 -242.4)" fill="#fee379"/>
    </g>
    <g id="Group_47" data-name="Group 47" transform="translate(1124.786 255.566)">
      <path id="Path_24" data-name="Path 24" d="M1205.714,284.043a15.629,15.629,0,0,1-9.448-2.993,33.127,33.127,0,0,1-5.925-5.977c-3.207-3.848-5.977-7.172-11.532-7.172s-8.325,3.324-11.532,7.172a33.127,33.127,0,0,1-5.925,5.977,16.406,16.406,0,0,1-18.9,0,33.123,33.123,0,0,1-5.924-5.977c-3.207-3.848-5.976-7.172-11.531-7.172v-5a15.626,15.626,0,0,1,9.448,2.994,33.123,33.123,0,0,1,5.924,5.977c3.207,3.848,5.976,7.172,11.531,7.172s8.325-3.324,11.532-7.172a33.127,33.127,0,0,1,5.925-5.977,16.408,16.408,0,0,1,18.9,0,33.127,33.127,0,0,1,5.925,5.977c3.207,3.848,5.977,7.172,11.532,7.172Z" transform="translate(-1125 -265.4)" fill="#fee379"/>
    </g>
    <g id="Group_48" data-name="Group 48" transform="translate(1124.786 268.16)">
      <path id="Path_25" data-name="Path 25" d="M1205.714,306.043a15.629,15.629,0,0,1-9.448-2.993,33.127,33.127,0,0,1-5.925-5.977c-3.207-3.848-5.977-7.172-11.532-7.172s-8.325,3.324-11.532,7.172a33.127,33.127,0,0,1-5.925,5.977,16.406,16.406,0,0,1-18.9,0,33.123,33.123,0,0,1-5.924-5.977c-3.207-3.848-5.976-7.172-11.531-7.172v-5a15.626,15.626,0,0,1,9.448,2.994,33.123,33.123,0,0,1,5.924,5.977c3.207,3.848,5.976,7.172,11.531,7.172s8.325-3.324,11.532-7.172a33.127,33.127,0,0,1,5.925-5.977,16.408,16.408,0,0,1,18.9,0,33.127,33.127,0,0,1,5.925,5.977c3.207,3.848,5.977,7.172,11.532,7.172Z" transform="translate(-1125 -287.4)" fill="#fee379"/>
    </g>
  </g>
</svg>
